# xmcd
#
# Track frame offsets: 
#        150
#        13990
#        37226
#        47322
#        75246
#        100219
#
# Disc length: 4440 seconds
#
# Revision: 0
# Processed by: cddbd v1.5.2PL0 Copyright (c) Steve Scherf et al.
# Submitted via: ExactAudioCopy v0.99pb5
#
DISCID=3e115606
DTITLE=Latinovela - Abeja Maya
DYEAR=2005
DGENRE=House
TTITLE0=Abeja Maya (Radio Edit)
TTITLE1=Abeja Maya (Extended)
TTITLE2=Abeja Maya (TV Version)
TTITLE3=Abeja Maya (Club Mix)
TTITLE4=El Ritmo (Radio Edit)
TTITLE5=Copy Control
EXTD=
EXTT0=
EXTT1=
EXTT2=
EXTT3=
EXTT4=
EXTT5=
PLAYORDER=
